<svg width="640" height="512" viewBox="0 0 640 512" fill="none" xmlns="http://www.w3.org/2000/svg">
<path d="M524.531 69.8366C524.367 69.5199 524.097 69.2718 523.767 69.1366C485.644 51.6452 445.413 39.1725 404.081 32.0306C403.705 31.9608 403.317 32.0111 402.972 32.1745C402.627 32.3379 402.342 32.606 402.158 32.9406C396.68 42.8835 391.707 53.0965 387.258 63.5406C342.704 56.7774 297.385 56.7774 252.832 63.5406C248.354 53.07 243.301 42.8544 237.697 32.9406C237.505 32.6132 237.218 32.3513 236.875 32.189C236.532 32.0267 236.148 31.9715 235.773 32.0306C194.437 39.1575 154.203 51.6312 116.085 69.1376C115.759 69.2759 115.483 69.5121 115.297 69.8136C39.0679 183.652 18.1859 294.691 28.4299 404.355C28.4587 404.623 28.5413 404.884 28.6727 405.12C28.8041 405.356 28.9817 405.563 29.1949 405.73C73.5823 438.595 123.23 463.682 176.02 479.919C176.392 480.03 176.789 480.025 177.157 479.904C177.526 479.783 177.849 479.552 178.083 479.243C189.421 463.815 199.467 447.479 208.12 430.401C208.239 430.166 208.307 429.909 208.319 429.647C208.331 429.384 208.288 429.122 208.192 428.878C208.095 428.633 207.949 428.412 207.76 428.228C207.572 428.045 207.348 427.903 207.101 427.813C191.258 421.751 175.921 414.444 161.233 405.96C160.966 405.803 160.742 405.583 160.58 405.319C160.419 405.055 160.325 404.755 160.306 404.446C160.288 404.137 160.346 403.828 160.476 403.547C160.605 403.266 160.801 403.021 161.048 402.834C164.13 400.525 167.214 398.123 170.157 395.697C170.418 395.481 170.735 395.343 171.07 395.298C171.406 395.253 171.748 395.302 172.057 395.441C268.286 439.358 372.467 439.358 467.557 395.441C467.867 395.293 468.212 395.237 468.553 395.278C468.893 395.319 469.215 395.457 469.481 395.674C472.425 398.1 475.508 400.525 478.613 402.834C478.861 403.019 479.059 403.262 479.19 403.543C479.322 403.823 479.382 404.131 479.366 404.44C479.35 404.749 479.258 405.049 479.098 405.314C478.939 405.579 478.716 405.801 478.451 405.96C463.796 414.515 448.445 421.818 432.561 427.79C432.314 427.883 432.09 428.028 431.903 428.215C431.717 428.401 431.571 428.625 431.477 428.871C431.382 429.118 431.341 429.381 431.356 429.645C431.37 429.908 431.44 430.166 431.561 430.401C440.358 447.384 450.39 463.7 461.575 479.216C461.802 479.534 462.123 479.773 462.493 479.898C462.864 480.024 463.264 480.03 463.638 479.916C516.522 463.734 566.257 438.645 610.7 405.73C610.916 405.572 611.096 405.369 611.228 405.136C611.36 404.903 611.441 404.644 611.465 404.378C623.729 277.595 590.933 167.466 524.531 69.8366ZM222.491 337.581C193.519 337.581 169.647 310.994 169.647 278.342C169.647 245.69 193.056 219.101 222.491 219.101C252.156 219.101 275.797 245.921 275.334 278.34C275.334 310.994 251.924 337.581 222.491 337.581ZM417.871 337.581C388.9 337.581 365.028 310.994 365.028 278.342C365.028 245.69 388.437 219.101 417.871 219.101C447.538 219.101 471.178 245.921 470.715 278.34C470.715 310.994 447.538 337.581 417.871 337.581Z" fill="black"/>
</svg>
