<svg width="448" height="512" viewBox="0 0 448 512" fill="none" xmlns="http://www.w3.org/2000/svg">
<g clip-path="url(#clip0_1_93)">
<path d="M224.1 140.999C160.5 140.999 109.2 192.299 109.2 255.899C109.2 319.499 160.5 370.799 224.1 370.799C287.7 370.799 339 319.499 339 255.899C339 192.299 287.7 140.999 224.1 140.999ZM224.1 330.599C183 330.599 149.4 297.099 149.4 255.899C149.4 214.699 182.9 181.199 224.1 181.199C265.3 181.199 298.8 214.699 298.8 255.899C298.8 297.099 265.2 330.599 224.1 330.599ZM370.5 136.299C370.5 151.199 358.5 163.099 343.7 163.099C328.8 163.099 316.9 151.099 316.9 136.299C316.9 121.499 328.9 109.499 343.7 109.499C358.5 109.499 370.5 121.499 370.5 136.299ZM446.6 163.499C444.9 127.599 436.7 95.7992 410.4 69.5992C384.2 43.3992 352.4 35.1992 316.5 33.3992C279.5 31.2992 168.6 31.2992 131.6 33.3992C95.7998 35.0992 63.9998 43.2992 37.6998 69.4992C11.3998 95.6992 3.2998 127.499 1.4998 163.399C-0.600195 200.399 -0.600195 311.299 1.4998 348.299C3.1998 384.199 11.3998 415.999 37.6998 442.199C63.9998 468.399 95.6998 476.599 131.6 478.399C168.6 480.499 279.5 480.499 316.5 478.399C352.4 476.699 384.2 468.499 410.4 442.199C436.6 415.999 444.8 384.199 446.6 348.299C448.7 311.299 448.7 200.499 446.6 163.499ZM398.8 387.999C391 407.599 375.9 422.699 356.2 430.599C326.7 442.299 256.7 439.599 224.1 439.599C191.5 439.599 121.4 442.199 91.9998 430.599C72.3998 422.799 57.2998 407.699 49.3998 387.999C37.6998 358.499 40.3998 288.499 40.3998 255.899C40.3998 223.299 37.7998 153.199 49.3998 123.799C57.1998 104.199 72.2998 89.0992 91.9998 81.1992C121.5 69.4992 191.5 72.1992 224.1 72.1992C256.7 72.1992 326.8 69.5992 356.2 81.1992C375.8 88.9992 390.9 104.099 398.8 123.799C410.5 153.299 407.8 223.299 407.8 255.899C407.8 288.499 410.5 358.599 398.8 387.999Z" fill="black"/>
</g>
<defs>
<clipPath id="clip0_1_93">
<rect width="448" height="512" fill="white"/>
</clipPath>
</defs>
</svg>
