<svg width="320" height="512" viewBox="0 0 320 512" fill="none" xmlns="http://www.w3.org/2000/svg">
<path d="M160 0C177.7 0 192 14.3 192 32V67.7C193.6 67.9 195.1 68.1 196.7 68.4C197.1 68.5 197.4 68.5 197.8 68.6L245.8 77.4C263.2 80.6 274.7 97.3 271.5 114.6C268.3 131.9 251.6 143.5 234.3 140.3L186.8 131.6C155.5 127 127.9 130.1 108.5 137.8C89.1005 145.5 81.3005 156.1 79.5005 165.9C77.5005 176.6 79.0005 182.6 80.7005 186.3C82.5005 190.2 86.2005 194.6 93.5005 199.5C109.8 210.2 134.8 217.2 167.2 225.8L170.1 226.6C198.7 234.2 233.7 243.4 259.7 260.4C273.9 269.7 287.3 282.3 295.6 299.9C304.1 317.8 305.9 337.8 302 359.1C295.1 397.1 268.9 422.5 236.4 435.8C222.7 441.4 207.8 445 192 446.8V480C192 497.7 177.7 512 160 512C142.3 512 128 497.7 128 480V445.1C127.6 445 127.1 445 126.7 444.9H126.5C102.1 441.1 62.0005 430.6 35.0005 418.6C18.9005 411.4 11.6005 392.5 18.8005 376.4C26.0005 360.3 44.9005 353 61.0005 360.2C81.9005 369.5 116.3 378.7 136.2 381.8C168.1 386.5 194.4 383.8 212.2 376.5C229.1 369.6 236.8 359.6 239 347.6C240.9 337 239.4 330.9 237.7 327.2C235.8 323.2 232.1 318.8 224.7 313.9C208.3 303.2 183.2 296.2 150.7 287.6L147.9 286.9C119.4 279.3 84.4005 270 58.4005 253C44.2005 243.7 30.9005 231 22.6005 213.4C14.2005 195.5 12.5005 175.5 16.5005 154.2C23.7005 116 52.3005 91.2 84.8005 78.3C98.1005 73 112.7 69.4 128 67.3V32C128 14.3 142.3 0 160 0Z" fill="black"/>
</svg>
