<svg width="512" height="512" viewBox="0 0 512 512" fill="none" xmlns="http://www.w3.org/2000/svg">
<path fill-rule="evenodd" clip-rule="evenodd" d="M95.9448 91.1163C111.788 103.988 117.731 103.006 147.481 101.021L427.95 84.18C433.898 84.18 428.952 78.2457 426.968 77.2597L380.388 43.586C371.463 36.6567 359.572 28.7213 336.782 30.7064L65.2042 50.5144C55.2998 51.4964 53.3217 56.4486 57.2658 60.4178L95.9448 91.1163ZM112.784 156.48V451.581C112.784 467.441 120.709 473.374 138.547 472.393L446.782 454.557C464.628 453.576 466.617 442.667 466.617 429.784V136.663C466.617 123.8 461.668 116.864 450.744 117.854L128.635 136.663C116.748 137.662 112.784 143.608 112.784 156.48ZM417.072 172.309C419.048 181.231 417.072 190.144 408.134 191.147L393.283 194.106V411.969C380.388 418.899 368.498 422.862 358.589 422.862C342.725 422.862 338.752 417.906 326.869 403.061L229.725 250.555V398.108L260.465 405.045C260.465 405.045 260.465 422.862 235.664 422.862L167.292 426.828C165.306 422.862 167.292 412.967 174.228 410.985L192.07 406.04V210.946L167.297 208.961C165.31 200.04 170.259 187.176 184.144 186.178L257.491 181.234L358.589 335.724V199.058L332.813 196.099C330.835 185.193 338.752 177.274 348.665 176.292L417.072 172.309ZM42.4021 23.7781L324.886 2.97502C359.576 -0.000131844 368.502 1.99299 390.305 17.8307L480.477 81.2088C495.356 92.1074 500.315 95.0745 500.315 106.955V454.557C500.315 476.342 492.379 489.226 464.633 491.197L136.584 511.007C115.756 512 105.843 509.032 94.9357 495.159L28.5314 409.003C16.6338 393.143 11.6855 381.279 11.6855 367.398V58.4257C11.6855 40.6109 19.624 25.7501 42.4021 23.7781Z" fill="black"/>
</svg>
