<svg width="496" height="512" viewBox="0 0 496 512" fill="none" xmlns="http://www.w3.org/2000/svg">
<path d="M248 8C111.033 8 0 119.033 0 256C0 392.967 111.033 504 248 504C384.967 504 496 392.967 496 256C496 119.033 384.967 8 248 8ZM362.952 176.66C359.22 215.875 343.071 311.038 334.852 354.96C331.376 373.544 324.53 379.776 317.904 380.385C303.504 381.711 292.566 370.868 278.617 361.724C256.79 347.416 244.459 338.509 223.271 324.547C198.786 308.412 214.659 299.547 228.613 285.047C232.265 281.254 295.72 223.537 296.948 218.301C297.101 217.646 297.248 215.201 295.794 213.917C294.34 212.633 292.204 213.068 290.659 213.417C288.47 213.914 253.601 236.962 186.051 282.559C176.154 289.355 167.19 292.666 159.157 292.493C150.302 292.302 133.269 287.487 120.606 283.37C105.075 278.322 92.731 275.653 93.806 267.079C94.366 262.612 100.516 258.046 112.256 253.379C184.553 221.88 232.763 201.114 256.884 191.079C325.756 162.432 340.067 157.456 349.395 157.29C351.447 157.256 356.034 157.764 359.005 160.175C360.981 161.892 362.241 164.289 362.535 166.891C363.038 170.122 363.178 173.398 362.952 176.66Z" fill="black"/>
</svg>
