<svg width='25' height="25" viewBox="0 0 512 512" fill="none" xmlns="http://www.w3.org/2000/svg">
<rect width="512" height="512" rx="256" fill="white"/>
<path d="M217 231V199H151V170.8L204.2 85H224.6L169 174.8V182.6H217V147H235V231H217Z" fill="black"/>
<path d="M216.6 275.928V129.928H261.6C270.267 129.928 277.867 131.728 284.4 135.328C290.933 138.794 296 143.661 299.6 149.928C303.2 156.194 305 163.528 305 171.928C305 181.794 302.467 190.261 297.4 197.328C292.333 204.394 285.6 209.328 277.2 212.128L307 275.928H287.2L258.6 213.928H234.4V275.928H216.6ZM234.4 197.728H261.6C269.067 197.728 275.067 195.394 279.6 190.728C284.133 185.928 286.4 179.661 286.4 171.928C286.4 164.061 284.133 157.794 279.6 153.128C275.067 148.461 269.067 146.128 261.6 146.128H234.4V197.728Z" fill="black"/>
<path d="M153.1 348.536V209.836H175.9L218.27 328.586C218.017 325.42 217.7 321.556 217.32 316.996C217.067 312.31 216.813 307.433 216.56 302.366C216.433 297.173 216.37 292.296 216.37 287.736V209.836H232.9V348.536H210.1L167.92 229.786C168.173 232.826 168.427 236.69 168.68 241.376C168.933 245.936 169.123 250.813 169.25 256.006C169.503 261.073 169.63 265.95 169.63 270.636V348.536H153.1Z" fill="black"/>
<path d="M217 406.072V260.072H301V276.472H234.8V321.672H294V337.672H234.8V389.672H301V406.072H217Z" fill="black"/>
<path d="M336.8 353.391C323.333 353.391 312.667 349.658 304.8 342.191C296.933 334.591 293 324.325 293 311.391H311C311 319.391 313.333 325.725 318 330.391C322.667 335.058 329 337.391 337 337.391C345 337.391 351.333 335.058 356 330.391C360.667 325.725 363 319.391 363 311.391V302.391C363 294.391 360.733 288.058 356.2 283.391C351.667 278.725 345.533 276.391 337.8 276.391H298V205.391H375.8V221.791H314.8L315.2 259.991H338.8C352.267 259.991 362.667 263.725 370 271.191C377.333 278.525 381 288.925 381 302.391V311.391C381 324.325 377 334.591 369 342.191C361.133 349.658 350.4 353.391 336.8 353.391Z" fill="black"/>
</svg>
