<?xml version="1.0" encoding="UTF-8" standalone="no"?>
<svg
   xmlns:dc="http://purl.org/dc/elements/1.1/"
   xmlns:cc="http://creativecommons.org/ns#"
   xmlns:rdf="http://www.w3.org/1999/02/22-rdf-syntax-ns#"
   xmlns:svg="http://www.w3.org/2000/svg"
   xmlns="http://www.w3.org/2000/svg"
   viewBox="0 0 6666.6665 3333.3333"
   height="256"
   width="256"
   fill="#ffffff"
   xml:space="preserve"
   id="svg2"
   version="1.1"><metadata
     id="metadata8"><rdf:RDF><cc:Work
         rdf:about=""><dc:format>image/svg+xml</dc:format><dc:type
           rdf:resource="http://purl.org/dc/dcmitype/StillImage" /></cc:Work></rdf:RDF></metadata><defs
     id="defs6"><clipPath
       id="clipPath18"
       clipPathUnits="userSpaceOnUse"><path
         id="path16"
         d="M 0,2500 H 5000 V 0 H 0 Z" /></clipPath></defs><g
     transform="matrix(1.3333333,0,0,-1.3333333,0,3333.3333)"
     id="g10"><g
       id="g12"><g
         clip-path="url(#clipPath18)"
         id="g14"><g
           transform="translate(2587.7461,1659.5786)"
           id="g20"><path
             id="path22"
             style="fill:#202632;fill-opacity:1;fill-rule:nonzero;stroke:none"
             d="m 0,0 66.763,313.56 c 3,15.753 -10.502,30.006 -26.255,26.255 -96.769,-17.253 -197.288,-47.259 -297.057,-90.017 -448.586,-189.787 -720.138,-561.858 -606.117,-831.16 86.267,-201.788 364.57,-288.055 687.882,-237.795 l -66.762,-313.56 c -3.001,-15.753 10.502,-30.006 26.254,-26.255 96.769,17.253 197.288,47.259 297.058,90.017 448.586,189.786 719.388,561.858 605.366,831.909 C 601.615,-36.007 323.312,50.26 0,0" /></g></g></g></g></svg>
